# xmcd
#
# Track frame offsets:
# 150
# 9833
# 31500
# 49265
# 65845
# 82843
# 102378
# 112438
# 128293
# 141273
# 160565
# 176428
# 190720
# 205795
#
# Disc length: 3004 seconds
#
#
# Revision: 2
# Processed by: cddbd v1.5.1PL0 Copyright (c) Steve Scherf et al.
# Submitted via: FreeRIP 2.91 
#
DISCID=ad0bba0e
DTITLE=Tim Maia - Velhos Camaradas - Tim Maia, Cassiano E Hyldon
DYEAR=1900
DGENRE=
TTITLE0=Prinavera (Vai Chuva) - Tim Maia
TTITLE1=Na Sombra de Uma  Arvore - Hyldon
TTITLE2=De Bar em Bar - Cassiano
TTITLE3=Reu Confesso - Tim Maia
TTITLE4=As Dores do Mundo - Hyldon
TTITLE5=Salve Essa Flor - Cassiano
TTITLE6=Coronel Antonio Bento - Tim Maia
TTITLE7=Na Rua, Na Chuva, Na Fazenda (Casinha De Sape) - Hyldon
TTITLE8=A Lua e Eu - Cassiano
TTITLE9=Gostava Tanto de Voce - Tim Maia
TTITLE10=Sabado e Domingo - Hyldon
TTITLE11=Colecao - Cassiano
TTITLE12=Azul da Cor do Mar - Tim Maia
TTITLE13=Acontecimento - Hyldon
EXTD=
EXTT0=
EXTT1=
EXTT2=
EXTT3=
EXTT4=
EXTT5=
EXTT6=
EXTT7=
EXTT8=
EXTT9=
EXTT10=
EXTT11=
EXTT12=
EXTT13=
PLAYORDER=
